<svg width="19" height="18" viewBox="0 0 19 18" fill="none" xmlns="http://www.w3.org/2000/svg">
<mask id="mask0_56_232" style="mask-type:luminance" maskUnits="userSpaceOnUse" x="0" y="0" width="19" height="18">
<path d="M0 0.599609H19V17.7145H0V0.599609Z" fill="white"/>
</mask>
<g mask="url(#mask0_56_232)">
<path d="M17.4107 7.49197C16.9195 7.49197 16.5217 7.04742 16.5217 6.49873C16.5217 5.95052 16.9195 5.50598 17.4107 5.50598C17.9015 5.50598 18.2995 5.95052 18.2995 6.49873C18.2995 7.04742 17.9015 7.49197 17.4107 7.49197ZM17.4288 4.73061C17.4003 4.69207 17.3676 4.64771 17.3303 4.59722C17.2927 4.54767 17.253 4.49041 17.2051 4.43126C17.157 4.37227 17.1045 4.30809 17.0477 4.2384C16.9902 4.1695 16.9304 4.094 16.8637 4.01613C16.795 3.94046 16.7219 3.85977 16.645 3.77451C16.6064 3.73203 16.5669 3.68846 16.5264 3.6441C16.4847 3.60037 16.4404 3.55758 16.3962 3.51259C16.3066 3.42419 16.2146 3.32965 16.1153 3.23526C16.0137 3.14387 15.9084 3.04901 15.7986 2.95038C15.7449 2.89973 15.6856 2.85505 15.6272 2.8066C15.5683 2.75878 15.5087 2.71002 15.4478 2.66078C14.9575 2.27333 14.3722 1.88652 13.6995 1.55492C13.0278 1.22206 12.2644 0.957468 11.4426 0.789937L11.3657 0.77342C11.3396 0.768386 11.3137 0.764768 11.2876 0.760521C11.2358 0.752027 11.1834 0.743532 11.1311 0.73488C11.0786 0.726858 11.0263 0.718206 10.9735 0.709711L10.8947 0.697127C10.8681 0.693351 10.8415 0.691149 10.8149 0.68816C10.7082 0.67652 10.6013 0.664879 10.4937 0.65371L10.4128 0.645216L10.3314 0.640654C10.277 0.637665 10.2226 0.634991 10.1679 0.631845C9.95006 0.615485 9.72904 0.620519 9.5066 0.619889C9.39545 0.621934 9.2836 0.630586 9.17133 0.63562C9.11554 0.638609 9.05934 0.641755 9.00299 0.644744C8.94706 0.650721 8.89085 0.656384 8.83465 0.662205C7.93307 0.74888 7.01656 0.985469 6.13879 1.36851C6.0299 1.41838 5.92073 1.46856 5.81155 1.51842C5.70308 1.57065 5.597 1.62979 5.48952 1.68501L5.32921 1.77011L5.17228 1.86324L5.01535 1.95683C4.96337 1.9883 4.91012 2.01755 4.85982 2.05311C4.75812 2.12106 4.65641 2.18933 4.55456 2.25729C4.5292 2.27475 4.5037 2.2908 4.47835 2.3092L4.40242 2.36583L4.25084 2.47956L4.09968 2.59282C4.07334 2.61201 4.05108 2.63073 4.02883 2.64945L3.96107 2.70608L3.68059 2.94078L3.40702 3.19373C3.36208 3.23636 3.31503 3.27663 3.27178 3.32178L3.14106 3.45565L3.01061 3.58936L2.94553 3.6559C2.92411 3.67839 2.90383 3.70278 2.88298 3.7259C2.80043 3.81981 2.71774 3.91341 2.63533 4.00732C2.59321 4.0531 2.55545 4.10328 2.51601 4.15204L2.39909 4.29881L2.28245 4.44526L2.17214 4.59753C2.0996 4.69962 2.02451 4.79936 1.95478 4.90318C1.88674 5.00826 1.81856 5.11302 1.75066 5.21779C1.22042 6.0652 0.811328 6.97978 0.533812 7.90474C0.516062 7.96247 0.498453 8.01973 0.480845 8.07714C0.465349 8.13551 0.450135 8.19355 0.434921 8.25144C0.405056 8.36769 0.372515 8.48189 0.345749 8.59767C0.296162 8.83033 0.241786 9.05905 0.206428 9.2895C0.196707 9.34676 0.186706 9.40418 0.176985 9.46128L0.162476 9.54654L0.151206 9.63212C0.136555 9.74663 0.122046 9.86021 0.107677 9.973C0.104155 10.0012 0.10007 10.0292 0.0972524 10.0576L0.0900679 10.1423C0.0851374 10.1986 0.0803478 10.2546 0.0756991 10.3106C0.0709095 10.3666 0.0662607 10.4223 0.061612 10.4778C0.059358 10.5058 0.0566814 10.5336 0.054991 10.5612L0.0514692 10.6445C0.0468205 10.7551 0.0423126 10.8649 0.0378047 10.9739L0.0344238 11.0556V11.1372C0.0345647 11.1915 0.0345647 11.2453 0.0347056 11.2989C0.0348464 11.3529 0.0348464 11.4062 0.0348464 11.4594C0.0349873 11.5127 0.034283 11.5659 0.0376639 11.6189C0.0421717 11.7243 0.0468205 11.8287 0.0514692 11.9329C0.0542867 11.9845 0.054991 12.0364 0.059358 12.0877C0.0638659 12.1388 0.0683738 12.1901 0.0727408 12.2406C0.0816157 12.3419 0.0904905 12.4425 0.0990837 12.5424C0.110213 12.6417 0.124581 12.7394 0.136837 12.8366C0.143176 12.885 0.149656 12.9332 0.155996 12.9813C0.161912 13.0291 0.168251 13.077 0.177267 13.1242C0.29898 13.8802 0.484085 14.5542 0.68877 15.1304C0.715113 15.2022 0.741174 15.2725 0.766672 15.3419C0.793015 15.4108 0.815695 15.48 0.844574 15.5446C0.899936 15.6753 0.953186 15.8013 1.00432 15.9225C1.05813 16.042 1.1142 16.154 1.16534 16.2626C1.1914 16.3162 1.21591 16.3694 1.24155 16.4203C1.2686 16.4701 1.2948 16.5188 1.3203 16.5663C1.37143 16.6613 1.41975 16.751 1.46525 16.8355C1.51273 16.9184 1.56034 16.9945 1.60288 17.0659C1.64571 17.1373 1.68543 17.2031 1.72178 17.2635C1.75841 17.3236 1.79545 17.3747 1.82673 17.4227C1.95351 17.6118 2.02113 17.7129 2.02113 17.7129C2.02113 17.7129 1.95943 17.6069 1.84391 17.4093C1.8156 17.3595 1.78151 17.3052 1.7484 17.2431C1.71586 17.1803 1.68022 17.112 1.64176 17.0382C1.60359 16.9642 1.56119 16.8857 1.51892 16.8002C1.47864 16.7133 1.43595 16.6211 1.39073 16.5234C1.36819 16.4746 1.34509 16.4243 1.32128 16.3732C1.29888 16.3212 1.27775 16.2667 1.25507 16.2116C1.21084 16.101 1.16196 15.9867 1.11575 15.8652C1.07236 15.7427 1.02714 15.6149 0.980374 15.4825C0.95558 15.4169 0.937267 15.3474 0.915432 15.2775C0.894301 15.208 0.872748 15.137 0.850913 15.0648C0.683417 14.4863 0.54156 13.8168 0.466476 13.0773C0.460277 13.0312 0.456756 12.9848 0.453656 12.9376C0.450276 12.8909 0.446895 12.8438 0.443373 12.7966C0.437034 12.7021 0.428722 12.6068 0.423651 12.5105C0.420693 12.4139 0.417875 12.3165 0.415058 12.2182C0.413508 12.1691 0.412099 12.1196 0.410691 12.0702C0.409282 12.0207 0.411536 11.9708 0.411818 11.9209C0.413086 11.8213 0.414494 11.7207 0.415903 11.619C0.415621 11.5682 0.419284 11.5174 0.422101 11.4666C0.42506 11.4153 0.427877 11.3641 0.430835 11.3129C0.433794 11.2613 0.436752 11.2099 0.43971 11.1583L0.444077 11.0804L0.451825 11.0026C0.462109 10.8991 0.472674 10.7948 0.483239 10.6895L0.490987 10.6107C0.494086 10.5844 0.498313 10.5582 0.501975 10.5319C0.509582 10.4792 0.517048 10.4267 0.524655 10.3737C0.532263 10.3208 0.53987 10.2679 0.547477 10.2146L0.559028 10.1347C0.563254 10.1081 0.568607 10.0819 0.573538 10.0553C0.593541 9.94925 0.613404 9.84291 0.633549 9.73562L0.648763 9.6554L0.667358 9.57549C0.679755 9.52232 0.692151 9.46867 0.704689 9.41551C0.750331 9.2 0.814568 8.98826 0.873593 8.77322C0.905149 8.66594 0.942198 8.56086 0.976288 8.45405C0.993757 8.40072 1.01122 8.34708 1.02855 8.29391C1.04841 8.24137 1.06814 8.18836 1.088 8.13582C1.39777 7.2892 1.82771 6.46916 2.35936 5.72668C2.42726 5.63512 2.4953 5.54357 2.56334 5.45171C2.63265 5.36141 2.70703 5.27521 2.77859 5.1868L2.88721 5.05482L3.00159 4.92913L3.11584 4.80266C3.1543 4.76113 3.19092 4.71771 3.23206 4.67886C3.31207 4.59926 3.39195 4.51951 3.4721 4.43975C3.49225 4.42009 3.51169 4.39917 3.5324 4.38045L3.59522 4.32413L3.7206 4.21135L3.84583 4.0984C3.88725 4.06049 3.93233 4.02746 3.97529 3.99159L4.23562 3.78096L4.50934 3.58196L4.58034 3.53037C4.60386 3.51291 4.62767 3.49545 4.64979 3.48192L4.78502 3.39508L4.9197 3.30809L4.98675 3.26483C5.00929 3.25036 5.0338 3.23746 5.05733 3.22346C5.15185 3.16919 5.24638 3.11492 5.34076 3.06065C5.38739 3.03218 5.43655 3.00968 5.48473 2.98467L5.6294 2.91184L5.77352 2.83869L5.92058 2.77373C6.01905 2.73172 6.11569 2.68595 6.21472 2.64678C6.31376 2.60965 6.41307 2.57237 6.51196 2.53525C7.30718 2.25304 8.12156 2.10565 8.90846 2.08756C8.95777 2.08583 9.00693 2.0841 9.05581 2.08236C9.1047 2.08347 9.15372 2.08457 9.20232 2.08551C9.29966 2.08834 9.39686 2.08724 9.49322 2.09275C9.68579 2.10801 9.87639 2.11634 10.0635 2.14497C10.1105 2.15064 10.157 2.15677 10.2038 2.16275L10.2734 2.17156L10.3424 2.18398C10.4345 2.2005 10.5258 2.21702 10.6165 2.23369C10.6392 2.23778 10.6622 2.24124 10.6844 2.24612L10.7516 2.26201C10.7963 2.27255 10.8408 2.28324 10.8853 2.29378C10.9295 2.30432 10.9738 2.31455 11.0179 2.32509C11.0398 2.33028 11.0618 2.33516 11.0839 2.34082L11.1486 2.36001C11.2351 2.38534 11.321 2.41051 11.4062 2.43536L11.4701 2.45392L11.5328 2.4761C11.5743 2.49073 11.616 2.50536 11.6571 2.51983C11.6987 2.53446 11.7397 2.54878 11.781 2.56325C11.8218 2.57741 11.8628 2.59078 11.9025 2.60855C11.9827 2.64127 12.0619 2.67368 12.1406 2.70608C12.1798 2.7226 12.2192 2.73723 12.2577 2.75532C12.2959 2.77357 12.3337 2.79119 12.3716 2.80943C12.4474 2.84514 12.5222 2.88038 12.5966 2.91546C12.6699 2.95274 12.7414 2.99301 12.8126 3.03092C12.8483 3.04995 12.8838 3.06867 12.9189 3.08787C12.9544 3.10643 12.9892 3.12515 13.0229 3.1467C13.5719 3.4665 14.0393 3.82469 14.4268 4.17501C14.4747 4.21921 14.5219 4.26341 14.5684 4.30636C14.6142 4.35009 14.6615 4.38989 14.7033 4.43535C14.7886 4.52313 14.8713 4.60807 14.9506 4.6894C15.0279 4.77309 15.0985 4.8574 15.1682 4.93527C15.2024 4.97444 15.237 5.01203 15.2691 5.05026C15.3002 5.08959 15.3305 5.12765 15.3602 5.16509C15.4191 5.2395 15.4753 5.30966 15.5279 5.37604C15.579 5.44384 15.6241 5.50975 15.6679 5.56953C15.711 5.62993 15.751 5.68562 15.7876 5.73643C15.8241 5.78771 15.8537 5.83758 15.8821 5.88021C15.8929 5.89688 15.9026 5.91198 15.9124 5.92693C15.8574 6.10657 15.8273 6.2988 15.8273 6.49873C15.8273 7.47592 16.5362 8.26764 17.4107 8.26764C18.285 8.26764 18.9937 7.47592 18.9937 6.49873C18.9937 5.52879 18.2948 4.74163 17.4288 4.73061Z" fill="#001750"/>
</g>
</svg>
