<svg width="144" height="126" viewBox="0 0 144 126" fill="none" xmlns="http://www.w3.org/2000/svg">
<mask id="mask0_56_15" style="mask-type:luminance" maskUnits="userSpaceOnUse" x="0" y="0" width="69" height="126">
<path d="M0 0.983398H68.052V125.953H0V0.983398Z" fill="white"/>
</mask>
<g mask="url(#mask0_56_15)">
<path d="M61.1337 4.27707C63.275 4.27707 65.0091 6.16946 65.0091 8.50448C65.0091 10.8388 63.275 12.7312 61.1337 12.7312C58.9949 12.7312 57.2602 10.8388 57.2602 8.50448C57.2602 6.16946 58.9949 4.27707 61.1337 4.27707ZM53.0833 125.778C52.7038 125.736 52.2905 125.691 51.8429 125.641C51.3958 125.591 50.9156 125.547 50.4047 125.478C49.8956 125.395 49.3546 125.304 48.7829 125.21C48.4974 125.164 48.2045 125.114 47.9036 125.065C47.6045 125.006 47.2993 124.933 46.9868 124.865C46.3623 124.722 45.7058 124.59 45.0285 124.421C44.3555 124.231 43.6548 124.035 42.9278 123.832C42.5624 123.741 42.2019 123.599 41.8304 123.479C41.4595 123.354 41.0825 123.226 40.6993 123.097C37.6511 122.016 34.3013 120.492 30.8803 118.385C30.7729 118.32 30.6623 118.258 30.5567 118.19C30.4511 118.12 30.3455 118.049 30.2392 117.98C30.028 117.839 29.8149 117.698 29.6012 117.555C29.1744 117.269 28.7378 116.991 28.308 116.692C27.8855 116.379 27.4593 116.065 27.0282 115.747C26.8139 115.589 26.5978 115.43 26.381 115.27C26.1643 115.11 25.9585 114.93 25.7455 114.759C25.323 114.415 24.8968 114.067 24.4676 113.716C24.2496 113.545 24.0445 113.355 23.8357 113.168C23.6275 112.979 23.4187 112.791 23.2087 112.603C22.9993 112.412 22.7881 112.223 22.5768 112.033L22.2594 111.746L21.9536 111.443C21.5452 111.037 21.1338 110.629 20.7205 110.219L20.4098 109.909C20.3072 109.805 20.2102 109.694 20.1101 109.587C19.9112 109.369 19.7116 109.151 19.5114 108.931C19.3112 108.713 19.1104 108.494 18.909 108.274L18.6069 107.945C18.508 107.831 18.4134 107.714 18.317 107.598C17.9314 107.135 17.5439 106.67 17.154 106.202L16.8623 105.85L16.5847 105.482C16.3999 105.237 16.2138 104.992 16.0278 104.744C15.2633 103.776 14.5767 102.721 13.8595 101.684C13.7674 101.554 13.6833 101.42 13.6004 101.284L13.3498 100.877C13.1822 100.607 13.0139 100.335 12.8463 100.063C12.6774 99.7912 12.5092 99.5179 12.3403 99.2461C12.1831 98.9648 12.0253 98.6822 11.8681 98.399C9.30862 93.9051 7.27727 88.8667 5.93307 83.5505C5.77526 82.8822 5.61744 82.2132 5.45962 81.5436C5.41725 81.3782 5.38348 81.2081 5.35339 81.038L5.25821 80.5291L5.06723 79.5119C5.0046 79.1717 4.93705 78.8336 4.8781 78.4934L4.73379 77.4628L4.58948 76.4336C4.54343 76.0894 4.48448 75.7479 4.45992 75.4004C4.39544 74.7086 4.33096 74.0169 4.26587 73.3238C4.25113 73.1511 4.23025 72.9776 4.22043 72.8049L4.19648 72.2832L4.09884 70.1966C4.08656 70.0232 4.08779 69.8491 4.0884 69.675L4.08902 69.1533L4.08717 67.0647L4.1842 64.9541L4.20876 64.4137C4.21674 64.2315 4.22411 64.05 4.24315 63.886L4.34017 62.8701L4.43474 61.8557L4.48141 61.3501C4.4986 61.1813 4.52808 61.0086 4.55018 60.8385C4.64598 60.1541 4.74177 59.4711 4.83695 58.7881C4.87687 58.4445 4.95179 58.109 5.01258 57.7715L5.20233 56.7591L5.39146 55.7492C5.46576 55.4158 5.54743 55.083 5.62481 54.7515L5.85938 53.7564L5.97606 53.2609C6.01351 53.0955 6.05404 52.9294 6.10378 52.768C6.28923 52.1158 6.4753 51.4656 6.66013 50.8167C8.22478 45.6552 10.4373 40.8465 13.1208 36.6191C13.2866 36.3533 13.4511 36.0888 13.6163 35.8243C13.7926 35.5678 13.9682 35.3127 14.1432 35.0582C14.3182 34.8037 14.4932 34.5493 14.6676 34.2961L14.928 33.9158C15.0133 33.7892 15.1012 33.6627 15.1957 33.5435C15.9375 32.5759 16.6443 31.5948 17.4254 30.7009C17.6158 30.4745 17.8055 30.2462 17.9947 30.0192L18.2777 29.681L18.5749 29.3569C18.9704 28.9263 19.3634 28.4998 19.754 28.0752C19.8522 27.9688 19.9474 27.8616 20.0475 27.7585L20.3527 27.4572C20.5559 27.2549 20.7586 27.0567 20.96 26.8572C21.1614 26.6583 21.3622 26.4587 21.563 26.2612C21.6631 26.1621 21.7614 26.061 21.8633 25.9666L22.1752 25.6873C22.5897 25.3157 23.0012 24.946 23.4089 24.5797L23.7147 24.3052L24.031 24.048C24.2416 23.878 24.451 23.7065 24.6598 23.5378C24.8679 23.3677 25.0761 23.199 25.2831 23.0302C25.49 22.8621 25.6933 22.69 25.9088 22.5394C26.3337 22.228 26.755 21.9186 27.1726 21.6126C27.3826 21.4612 27.5852 21.2992 27.7983 21.1586C28.012 21.0179 28.2245 20.878 28.4357 20.7387C28.8582 20.4601 29.277 20.1822 29.6915 19.9084C30.1127 19.6472 30.5395 19.4048 30.9558 19.1557C31.1646 19.0325 31.3722 18.9106 31.5791 18.7867L31.888 18.6053C31.9912 18.5443 32.098 18.4934 32.2024 18.4365C35.5319 16.6191 38.7478 15.3615 41.648 14.5044C42.0122 14.4026 42.3702 14.3035 42.7227 14.2044C43.0758 14.11 43.4172 13.9955 43.7635 13.9305C44.4507 13.7772 45.1133 13.6292 45.7494 13.4879C46.3887 13.3647 47.007 13.2763 47.5941 13.1738C47.8876 13.1263 48.1744 13.0727 48.455 13.0332C48.7369 13.0024 49.012 12.9736 49.2797 12.9448C49.8146 12.8852 50.3206 12.8283 50.7971 12.7761C51.2742 12.7379 51.7237 12.7238 52.1407 12.6977C52.557 12.6756 52.9427 12.6542 53.2964 12.6334C53.6488 12.6174 53.9712 12.6308 54.2586 12.6281C54.7112 12.6281 55.079 12.6281 55.3603 12.6281C56.5927 14.6785 58.7192 16.0345 61.1337 16.0345C64.9465 16.0345 68.0359 12.6622 68.0359 8.50448C68.0359 4.34671 64.9465 0.975098 61.1337 0.975098C58.9759 0.975098 57.0496 2.05589 55.7833 3.7494C55.4732 3.76547 54.8647 3.79761 53.9792 3.84248C53.6464 3.86457 53.2743 3.87194 52.8665 3.91078C52.4582 3.9543 52.0136 4.00252 51.5321 4.05341C51.0513 4.10832 50.5343 4.1552 49.9847 4.22752C49.4363 4.31792 48.8548 4.41234 48.2395 4.51278C47.9318 4.563 47.6174 4.6159 47.2938 4.66814C46.9714 4.73041 46.6429 4.80876 46.3064 4.88041C45.634 5.03242 44.9278 5.17371 44.1989 5.35585C43.4737 5.55741 42.7196 5.76701 41.9367 5.9833C41.5437 6.08374 41.155 6.23173 40.754 6.36097C40.3548 6.49624 39.9489 6.63285 39.5363 6.77079C36.2528 7.92926 32.6433 9.56116 28.9564 11.8259C28.841 11.8955 28.7225 11.9611 28.6083 12.0348C28.4947 12.1091 28.3804 12.1848 28.2662 12.2598C28.0378 12.4098 27.8081 12.5625 27.5778 12.7138C27.1179 13.0218 26.6481 13.3212 26.1845 13.6426C25.7295 13.9767 25.2696 14.3149 24.8059 14.6551C24.5744 14.8252 24.3417 14.9966 24.1077 15.168C23.875 15.3408 23.6527 15.533 23.423 15.7164C22.968 16.0868 22.5087 16.4604 22.0457 16.8381C21.8117 17.0216 21.59 17.2245 21.3653 17.4267C21.1405 17.6289 20.9152 17.8312 20.6886 18.0341C20.462 18.2376 20.236 18.4412 20.0082 18.6461L19.6662 18.9541L19.3364 19.2796C18.8961 19.7142 18.4527 20.1534 18.0063 20.5947L17.6723 20.9262C17.5617 21.0394 17.4567 21.1572 17.348 21.2731C17.1337 21.5075 16.9188 21.7418 16.7026 21.9769C16.4871 22.2112 16.2703 22.4463 16.0536 22.6833L15.7281 23.0376C15.6213 23.1601 15.5193 23.2867 15.4143 23.4099C14.9992 23.9068 14.5816 24.407 14.161 24.9112L13.8466 25.2896L13.5463 25.6846C13.3467 25.9471 13.1466 26.2116 12.9451 26.4761C12.1223 27.5194 11.3787 28.6505 10.6062 29.7694C10.5073 29.9074 10.4158 30.052 10.3261 30.198L10.0553 30.6339C9.87418 30.9265 9.69303 31.2185 9.51126 31.5105C9.33011 31.8044 9.14773 32.0977 8.96597 32.391C8.79526 32.6937 8.62516 32.9977 8.45445 33.3011C5.69113 38.1378 3.49091 43.5646 2.03188 49.296C1.86117 50.0152 1.68923 50.7364 1.5179 51.4589C1.47246 51.637 1.43562 51.8205 1.40307 52.004L1.29868 52.5517L1.09051 53.6486C1.02235 54.0156 0.949886 54.3798 0.885408 54.7475L0.726978 55.8584L0.569776 56.968C0.520036 57.339 0.456787 57.7066 0.42854 58.0809C0.357921 58.8269 0.286689 59.5729 0.215457 60.3195C0.199491 60.507 0.177385 60.6905 0.166331 60.8807L0.138084 61.4532L0.0822037 62.5983L0.0281654 63.7434C0.015884 63.9382 0.0164981 64.117 0.0171122 64.2978L0.0164981 64.8389L0.0134277 67.0647L0.112293 69.31L0.13747 69.8705C0.145453 70.0567 0.153436 70.2442 0.173086 70.4303L0.274408 71.548L0.376344 72.6629L0.427312 73.2207C0.446348 73.4048 0.476437 73.5897 0.500386 73.7738C0.602322 74.5124 0.704258 75.2497 0.806193 75.9863C0.849178 76.3553 0.927779 76.7189 0.992871 77.0832L1.19613 78.1767L1.39877 79.2668C1.47799 79.6264 1.56518 79.984 1.64808 80.3436L1.89924 81.417L2.02574 81.9534C2.06565 82.1322 2.10925 82.311 2.16206 82.4858C2.36163 83.1889 2.56121 83.892 2.75894 84.5924C4.43719 90.1692 6.81979 95.3675 9.70777 99.9351C9.88646 100.223 10.0639 100.509 10.2414 100.794C10.4311 101.072 10.6197 101.348 10.8088 101.623C10.9973 101.898 11.1852 102.173 11.3731 102.447L11.6538 102.856C11.7459 102.995 11.8404 103.13 11.9424 103.259C12.7394 104.307 13.5033 105.365 14.3434 106.333C14.5485 106.579 14.753 106.824 14.9568 107.069L15.2614 107.436L15.582 107.786C16.0075 108.251 16.4312 108.713 16.8519 109.173C16.9581 109.287 17.0613 109.404 17.1687 109.516L17.4973 109.841C17.7165 110.059 17.9345 110.276 18.1519 110.491C18.3686 110.706 18.5854 110.921 18.8009 111.134C18.9102 111.241 19.0159 111.351 19.1258 111.454L19.4617 111.757C19.9081 112.157 20.3515 112.557 20.7917 112.954L21.1209 113.251L21.4617 113.529C21.6889 113.714 21.9149 113.898 22.1396 114.083C22.365 114.267 22.5891 114.449 22.812 114.632C23.0356 114.814 23.2548 114.999 23.4869 115.163C23.945 115.5 24.3994 115.836 24.8501 116.168C25.0767 116.332 25.296 116.505 25.5262 116.659C25.7559 116.811 25.9849 116.963 26.2128 117.115C26.669 117.417 27.121 117.716 27.5686 118.013C28.0224 118.297 28.483 118.559 28.9325 118.83C29.1585 118.963 29.3826 119.097 29.6055 119.229C29.7173 119.295 29.8284 119.361 29.9389 119.428C30.0507 119.492 30.1662 119.547 30.2785 119.609C33.8739 121.582 37.3489 122.95 40.485 123.883C40.8786 123.993 41.2655 124.104 41.6468 124.21C42.0288 124.313 42.3984 124.435 42.7724 124.509C43.5154 124.676 44.2321 124.836 44.9198 124.992C45.6106 125.127 46.2788 125.226 46.9137 125.336C47.2318 125.387 47.5413 125.446 47.8446 125.488C48.1498 125.522 48.447 125.555 48.7363 125.589C49.3141 125.653 49.8619 125.714 50.3771 125.772C50.8929 125.815 51.3792 125.833 51.83 125.861C52.2801 125.887 52.697 125.91 53.079 125.932C53.4603 125.95 53.8079 125.938 54.118 125.942C55.3603 125.944 56.0228 125.945 56.0228 125.945C56.0228 125.945 55.3609 125.91 54.1204 125.843C53.8103 125.822 53.4634 125.816 53.0833 125.778Z" fill="#54AFE6"/>
</g>
<path d="M89.6158 28.8969C89.6158 31.2312 87.8798 33.1229 85.7404 33.1229C83.601 33.1229 81.865 31.2312 81.865 28.8969C81.865 26.5618 83.601 24.6688 85.7404 24.6688C87.8798 24.6688 89.6158 26.5618 89.6158 28.8969ZM59.0375 19.8414C58.8097 19.8675 58.5819 19.909 58.3541 19.9532C58.125 19.9954 57.896 20.0376 57.6657 20.0798C57.2045 20.1668 56.7378 20.2465 56.2711 20.3443C55.8069 20.4561 55.3371 20.5679 54.8637 20.6811C54.6267 20.738 54.3896 20.7963 54.1514 20.8525C53.9131 20.9108 53.6779 20.9898 53.4397 21.0561C52.9644 21.1974 52.4854 21.338 52.0015 21.482C51.759 21.5489 51.5207 21.636 51.2812 21.7204C51.0411 21.8047 50.8004 21.8891 50.5584 21.9748C50.3171 22.0592 50.0746 22.1449 49.832 22.2306L49.4666 22.3599L49.1056 22.5085C48.6235 22.7061 48.1384 22.905 47.6496 23.1065L47.2836 23.2579C47.162 23.3101 47.0423 23.3697 46.9219 23.4253C46.6806 23.5384 46.4386 23.6516 46.1967 23.7668C45.9541 23.8813 45.711 23.9965 45.4666 24.111L45.1012 24.2837C44.9796 24.3453 44.8611 24.4116 44.7401 24.4739C44.2605 24.7317 43.7785 24.9889 43.2928 25.2494L42.9292 25.4456L42.5725 25.6592C42.3342 25.8011 42.0959 25.9451 41.8564 26.0877C40.8899 26.6429 39.9608 27.2951 39.0127 27.9272C38.5435 28.2527 38.0879 28.6096 37.623 28.9504C37.3915 29.1239 37.16 29.2966 36.9273 29.4694C36.7025 29.6535 36.4772 29.8397 36.2512 30.0245C32.6165 32.9602 29.2643 36.5642 26.4224 40.669C26.0754 41.1873 25.7279 41.7077 25.3797 42.2293C25.0389 42.757 24.7251 43.3047 24.3978 43.8438L23.9133 44.6567L23.4632 45.4938L23.0131 46.3322C22.8651 46.6127 22.7073 46.8873 22.5758 47.1779C22.302 47.7518 22.0275 48.3277 21.7536 48.9029C21.6861 49.0482 21.6148 49.1875 21.5497 49.3375L21.36 49.7895L20.9805 50.6921L20.6035 51.5962C20.5371 51.7502 20.4855 51.8921 20.434 52.0368L20.2768 52.4694L19.6486 54.2004C19.6025 54.3236 19.6258 54.2667 19.6105 54.3095L19.5927 54.3678L19.5571 54.4823L19.4852 54.712L19.3415 55.1727L19.0554 56.0907C18.9639 56.3974 18.8564 56.7001 18.7784 57.0115L18.5353 57.9436L18.2927 58.8758L18.1717 59.3405C18.133 59.4958 18.1036 59.6545 18.0692 59.8119C17.9365 60.4394 17.8039 61.0655 17.6719 61.6936C17.5994 62.005 17.5564 62.323 17.503 62.6384L17.3483 63.586L17.1947 64.5322L17.0818 65.4824C17.0117 66.1179 16.9258 66.7467 16.8717 67.3801C16.8269 68.0136 16.7827 68.6478 16.7391 69.2785C16.4658 74.3343 16.8687 79.3271 17.8586 83.9871C17.9181 84.2797 17.9783 84.5703 18.0372 84.861C18.1091 85.1469 18.1803 85.4348 18.2516 85.7194C18.3977 86.2906 18.5279 86.8638 18.6857 87.423C19.021 88.5379 19.3262 89.6495 19.7186 90.7149C19.8113 90.9834 19.904 91.2506 19.9967 91.5171L20.1349 91.9169L20.2897 92.3073C20.496 92.8263 20.7011 93.3439 20.9056 93.8568C20.9572 93.9847 21.0063 94.114 21.0597 94.2405L21.2292 94.6155C21.3416 94.864 21.4533 95.1124 21.5645 95.3608C21.6762 95.6079 21.7874 95.855 21.8979 96.1008C21.9544 96.2227 22.0072 96.3479 22.0662 96.4684L22.2473 96.8253C22.488 97.3028 22.7275 97.7749 22.9652 98.2443L23.1432 98.5965L23.3361 98.936C23.4632 99.163 23.5909 99.388 23.718 99.6137C23.8451 99.8374 23.9716 100.061 24.0975 100.285C24.224 100.507 24.3462 100.731 24.4844 100.942C24.7527 101.371 25.0198 101.795 25.2845 102.217C25.4184 102.425 25.5437 102.64 25.683 102.843C25.8231 103.043 25.9631 103.244 26.1012 103.445C26.3788 103.844 26.6539 104.24 26.9259 104.631C27.2078 105.015 27.4995 105.384 27.7813 105.755C27.9232 105.94 28.0638 106.123 28.2044 106.305C28.3432 106.49 28.4832 106.672 28.633 106.842C30.9389 109.66 33.3233 111.95 35.561 113.776C35.8435 114.001 36.1223 114.22 36.3949 114.439C36.6712 114.651 36.931 114.876 37.2092 115.065C37.7551 115.453 38.2807 115.828 38.7861 116.188C39.2995 116.535 39.8054 116.844 40.2801 117.15C40.5196 117.301 40.7505 117.454 40.9808 117.592C41.2141 117.725 41.4426 117.854 41.6642 117.978C42.1076 118.23 42.527 118.467 42.9225 118.691C43.3222 118.902 43.706 119.083 44.0579 119.262C44.4098 119.436 44.7364 119.6 45.0349 119.748C45.3345 119.894 45.6152 120.003 45.862 120.114C46.8544 120.542 47.3831 120.771 47.3831 120.771C47.3831 120.771 46.8667 120.51 45.8983 120.022C45.6575 119.896 45.3824 119.771 45.0914 119.606C44.8015 119.441 44.4859 119.259 44.1439 119.063C43.8037 118.866 43.434 118.661 43.0477 118.429C42.6676 118.183 42.2636 117.922 41.8362 117.648C41.6231 117.509 41.4039 117.368 41.1797 117.223C40.9581 117.072 40.7376 116.906 40.5079 116.742C40.0541 116.409 39.5703 116.075 39.0815 115.703C38.6013 115.316 38.1014 114.916 37.5831 114.5C37.3197 114.297 37.0741 114.059 36.8143 113.834C36.5558 113.604 36.2942 113.371 36.0277 113.134C33.9214 111.205 31.7065 108.822 29.6076 105.948C29.4706 105.774 29.3441 105.59 29.2183 105.402C29.0905 105.216 28.9634 105.03 28.8351 104.841C28.5802 104.465 28.3156 104.091 28.062 103.702C27.8182 103.307 27.5719 102.908 27.3232 102.505C27.1986 102.304 27.0745 102.101 26.9486 101.899C26.824 101.696 26.7135 101.481 26.5943 101.272C26.3604 100.849 26.1239 100.424 25.8863 99.9954C25.7629 99.7831 25.656 99.5595 25.5461 99.3391C25.4356 99.1162 25.325 98.8938 25.2139 98.6702C25.1034 98.4465 24.9916 98.2209 24.8798 97.9972L24.7116 97.6584L24.5581 97.3102C24.3536 96.8461 24.1466 96.378 23.9391 95.9079L23.7831 95.553C23.7328 95.4338 23.6885 95.3113 23.6406 95.1908C23.5461 94.9497 23.4521 94.7073 23.3576 94.4629C23.2624 94.2184 23.1678 93.9747 23.0726 93.7303L22.9296 93.3627C22.8841 93.2381 22.8436 93.1109 22.8012 92.9863C22.6311 92.4848 22.4604 91.9792 22.2891 91.4716L22.1607 91.0899L22.0484 90.7022C21.9734 90.441 21.8979 90.1812 21.823 89.9214C21.5006 88.8855 21.266 87.8094 21.002 86.7339C20.8792 86.1935 20.7846 85.6424 20.6735 85.0947C20.62 84.8215 20.5666 84.5449 20.5126 84.271C20.4708 83.9918 20.4284 83.7139 20.3867 83.4333C19.6774 78.9769 19.546 74.2734 20.0403 69.5939C20.1116 69.0094 20.1828 68.4254 20.254 67.8395C20.3339 67.2556 20.4456 66.6757 20.5396 66.0924L20.6882 65.2206L20.8761 64.3547L21.064 63.4896C21.1285 63.2009 21.1819 62.9103 21.2636 62.6271C21.4153 62.0572 21.5669 61.4873 21.7192 60.9161C21.7579 60.7742 21.7923 60.6295 21.8353 60.4889L21.9698 60.067L22.2363 59.2246L22.5034 58.3829C22.5894 58.101 22.703 57.8291 22.8018 57.5532L23.3926 55.9515L24.1092 54.2613L24.2885 53.8401C24.3474 53.6975 24.407 53.5548 24.4703 53.433L24.8436 52.6656L25.2139 51.9015L25.3987 51.5178C25.4614 51.3912 25.5351 51.2647 25.6026 51.1368C25.8789 50.6299 26.154 50.1223 26.4298 49.6167C26.5618 49.3589 26.7196 49.1198 26.8664 48.8741L27.3128 48.1395L27.7574 47.4076L28.2345 46.7011C28.5557 46.2337 28.8615 45.7563 29.1931 45.3002C29.5308 44.8502 29.8679 44.4023 30.2044 43.9529C32.95 40.4213 36.1044 37.3945 39.4573 34.9939C39.6654 34.8419 39.873 34.6899 40.0806 34.5385C40.2936 34.3972 40.5079 34.258 40.7204 34.1187C41.1478 33.8414 41.5641 33.5515 41.9928 33.289C42.8611 32.7848 43.7048 32.2564 44.5823 31.8238C44.7985 31.7107 45.0146 31.5968 45.2302 31.4837L45.5519 31.3149L45.8811 31.1629C46.3189 30.962 46.753 30.7611 47.1854 30.5622C47.294 30.5127 47.4003 30.4605 47.5096 30.4143L47.8381 30.2837C48.0567 30.1959 48.2747 30.1089 48.4921 30.0218C48.7095 29.9341 48.9256 29.8477 49.1412 29.7614C49.2492 29.7192 49.3555 29.673 49.4642 29.6335L49.7915 29.5216C50.2268 29.3736 50.6585 29.225 51.0872 29.079L51.4077 28.9678L51.7325 28.8748C51.9481 28.8145 52.163 28.7529 52.3773 28.6919C52.591 28.631 52.8041 28.5701 53.016 28.5085C53.2284 28.4475 53.4384 28.3839 53.6521 28.3404C54.0777 28.2413 54.5002 28.1435 54.919 28.0478C55.1284 28.0016 55.3347 27.946 55.5441 27.9085C55.7529 27.8723 55.961 27.8362 56.1686 27.8C56.5825 27.7257 56.9927 27.6527 57.3992 27.5817C57.8082 27.5221 58.2147 27.4799 58.6138 27.429C58.8146 27.4042 59.0136 27.3795 59.2119 27.3547C59.4109 27.3286 59.608 27.3038 59.8045 27.2951C62.9565 27.0205 65.8531 27.1484 68.3843 27.4799C68.6999 27.5261 69.01 27.5723 69.3165 27.6165C69.6217 27.6661 69.9226 27.6935 70.2142 27.7618C70.7988 27.881 71.3626 27.9942 71.9048 28.1033C72.4427 28.2286 72.9542 28.3739 73.4461 28.4978C73.6899 28.5627 73.9312 28.6196 74.1627 28.6846C74.393 28.7582 74.6184 28.8312 74.8364 28.9009C75.2754 29.0408 75.6893 29.1714 76.078 29.2953C76.4649 29.4319 76.8216 29.5752 77.1575 29.7004C77.4904 29.825 77.7999 29.9435 78.0829 30.0506C78.366 30.1598 78.6153 30.2817 78.8426 30.3794C78.8911 30.4009 78.939 30.4216 78.985 30.4417C79.6384 33.8582 82.414 36.4262 85.7404 36.4262C89.5519 36.4262 92.642 33.0546 92.642 28.8969C92.642 24.7378 89.5519 21.3668 85.7404 21.3668C84.4828 21.3668 83.305 21.7351 82.2906 22.3773C82.0812 22.2989 81.8398 22.2085 81.5672 22.1068C81.2921 22.0083 80.99 21.8851 80.6479 21.776C80.3065 21.6681 79.9319 21.5516 79.5291 21.4257C79.125 21.3019 78.6933 21.1592 78.2285 21.0273C77.7593 20.9094 77.2625 20.7829 76.7363 20.6496C76.4741 20.584 76.2039 20.5157 75.9269 20.4461C75.6482 20.3851 75.3608 20.3322 75.0672 20.2746C74.4814 20.1628 73.8698 20.0322 73.2275 19.9237C72.5827 19.834 71.9128 19.7409 71.2176 19.6438C70.8707 19.5869 70.5139 19.5729 70.1534 19.5374C69.7905 19.5066 69.4233 19.4751 69.05 19.4443C66.0607 19.2354 62.6716 19.2976 59.0375 19.8414Z" fill="#3A6AB9"/>
<mask id="mask1_56_15" style="mask-type:luminance" maskUnits="userSpaceOnUse" x="30" y="37" width="83" height="74">
<path d="M30.009 37.583H112.832V110.439H30.009V37.583Z" fill="white"/>
</mask>
<g mask="url(#mask1_56_15)">
<path d="M105.904 66.9257C103.763 66.9257 102.029 65.0333 102.029 62.6976C102.029 60.3639 103.763 58.4716 105.904 58.4716C108.043 58.4716 109.778 60.3639 109.778 62.6976C109.778 65.0333 108.043 66.9257 105.904 66.9257ZM105.983 55.1709C105.859 55.0069 105.716 54.818 105.553 54.6031C105.389 54.3921 105.216 54.1484 105.007 53.8966C104.798 53.6455 104.569 53.3723 104.322 53.0756C104.071 52.7823 103.81 52.4609 103.52 52.1294C103.22 51.8073 102.901 51.4638 102.566 51.1009C102.398 50.9201 102.226 50.7346 102.049 50.5457C101.867 50.3596 101.674 50.1774 101.481 49.9859C101.091 49.6096 100.69 49.2071 100.257 48.8054C99.8142 48.4163 99.3549 48.0125 98.8766 47.5927C98.6426 47.377 98.3841 47.1869 98.1292 46.9806C97.8725 46.777 97.6128 46.5695 97.3475 46.3599C95.2099 44.7105 92.6585 43.0639 89.7263 41.6523C86.7984 40.2354 83.4707 39.109 79.8882 38.3959L79.553 38.3256C79.4394 38.3041 79.3264 38.2887 79.2128 38.2707C78.9868 38.2345 78.7584 38.1983 78.5305 38.1615C78.3015 38.1274 78.0737 38.0905 77.8434 38.0544L77.5001 38.0008C77.3841 37.9847 77.268 37.9754 77.1519 37.9626C76.6871 37.9131 76.221 37.8635 75.7519 37.816L75.3994 37.7798L75.0445 37.7604C74.8074 37.7477 74.5704 37.7363 74.3315 37.7229C73.3822 37.6533 72.4187 37.6747 71.4491 37.672C70.9646 37.6807 70.477 37.7175 69.9876 37.739C69.7444 37.7517 69.4994 37.7651 69.2538 37.7778C69.01 37.8033 68.765 37.8274 68.52 37.8521C64.5899 38.2211 60.5948 39.2282 56.7685 40.8588C56.2938 41.0711 55.8179 41.2847 55.342 41.497C54.8692 41.7193 54.4068 41.9711 53.9382 42.2061L53.2394 42.5684L52.5553 42.9648L51.8713 43.3632C51.6447 43.4972 51.4125 43.6217 51.1933 43.7731C50.75 44.0623 50.3066 44.353 49.8626 44.6422C49.7521 44.7166 49.641 44.7849 49.5304 44.8632L49.1994 45.1043L48.5387 45.5884L47.8798 46.0706C47.765 46.1523 47.6679 46.232 47.5709 46.3116L47.2756 46.5527L46.0529 47.5518L44.8604 48.6286C44.6645 48.8101 44.4594 48.9815 44.2709 49.1737L43.701 49.7435L43.1324 50.3127L42.8487 50.596C42.7554 50.6917 42.6669 50.7955 42.5761 50.894C42.2162 51.2937 41.8558 51.6922 41.4965 52.0919C41.3129 52.2868 41.1484 52.5004 40.9764 52.708L40.4667 53.3328L39.9583 53.9562L39.4775 54.6044C39.1612 55.039 38.8339 55.4635 38.53 55.9055C38.2334 56.3528 37.9361 56.7988 37.6402 57.2448C35.3288 60.8521 33.5455 64.7454 32.3358 68.6828C32.2584 68.9286 32.1817 69.1723 32.1049 69.4167C32.0374 69.6652 31.9711 69.9123 31.9047 70.1587C31.7746 70.6536 31.6327 71.1397 31.516 71.6326C31.2999 72.623 31.0628 73.5966 30.9087 74.5776C30.8663 74.8214 30.8227 75.0658 30.7804 75.3089L30.7171 75.6718L30.668 76.0361C30.6041 76.5236 30.5409 77.0071 30.4783 77.4872C30.4629 77.6071 30.4451 77.7262 30.4328 77.8475L30.4015 78.2077C30.38 78.4474 30.3591 78.6858 30.3389 78.9242C30.318 79.1626 30.2977 79.3997 30.2775 79.636C30.2676 79.7552 30.256 79.8738 30.2486 79.991L30.2332 80.3459C30.213 80.8166 30.1933 81.284 30.1737 81.7481L30.1589 82.0956V82.4432C30.1595 82.6742 30.1595 82.9032 30.1602 83.1315C30.1608 83.3612 30.1608 83.5882 30.1608 83.8146C30.1614 84.0416 30.1583 84.2679 30.1731 84.4936C30.1927 84.9422 30.213 85.3869 30.2332 85.8302C30.2455 86.0498 30.2486 86.2708 30.2676 86.4891C30.2873 86.7067 30.3069 86.925 30.326 87.14C30.3646 87.5712 30.4033 87.9998 30.4408 88.425C30.4893 88.8476 30.5519 89.2634 30.6054 89.6772C30.633 89.8835 30.6612 90.0884 30.6889 90.2933C30.7147 90.4969 30.7423 90.7004 30.7816 90.9013C31.3122 94.1196 32.1191 96.989 33.0113 99.4419C33.1261 99.7472 33.2397 100.047 33.3509 100.342C33.4657 100.635 33.5646 100.93 33.6905 101.205C33.9318 101.761 34.1639 102.298 34.3868 102.813C34.6214 103.322 34.8658 103.799 35.0887 104.261C35.2023 104.49 35.3091 104.716 35.4209 104.933C35.5388 105.144 35.653 105.352 35.7642 105.554C35.9871 105.959 36.1977 106.34 36.3961 106.7C36.603 107.053 36.8106 107.377 36.996 107.681C37.1827 107.985 37.3558 108.265 37.5143 108.522C37.6739 108.778 37.8354 108.996 37.9718 109.2C38.5244 110.005 38.8192 110.435 38.8192 110.435C38.8192 110.435 38.5502 109.984 38.0467 109.143C37.9232 108.931 37.7746 108.7 37.6303 108.435C37.4885 108.168 37.3331 107.877 37.1655 107.563C36.9991 107.248 36.8142 106.914 36.63 106.55C36.4544 106.18 36.2683 105.787 36.0712 105.371C35.973 105.164 35.8723 104.95 35.7685 104.732C35.6708 104.511 35.5787 104.279 35.4799 104.044C35.287 103.574 35.074 103.087 34.8725 102.57C34.6834 102.048 34.4863 101.504 34.2824 100.94C34.1743 100.661 34.0945 100.365 33.9993 100.068C33.9072 99.772 33.8133 99.47 33.7181 99.1626C32.988 96.6997 32.3696 93.8497 32.0423 90.7018C32.0153 90.5056 31.9999 90.308 31.9864 90.1071C31.9717 89.9083 31.9569 89.708 31.9416 89.5071C31.914 89.1047 31.8777 88.6989 31.8556 88.2891C31.8427 87.8779 31.8304 87.4634 31.8182 87.0449C31.8114 86.836 31.8053 86.625 31.7991 86.4148C31.793 86.2038 31.8028 85.9916 31.804 85.7793C31.8096 85.3554 31.8157 84.9268 31.8218 84.4943C31.8206 84.278 31.8366 84.0617 31.8489 83.8454C31.8618 83.6271 31.874 83.4088 31.8869 83.1911C31.8998 82.9715 31.9127 82.7525 31.9256 82.5329L31.9447 82.2014L31.9784 81.87C32.0233 81.4293 32.0693 80.9854 32.1154 80.5374L32.1491 80.2019C32.1626 80.0901 32.1811 79.9782 32.197 79.8664C32.2302 79.6421 32.2627 79.4184 32.2959 79.1927C32.3291 78.9678 32.3622 78.7428 32.3954 78.5157L32.4457 78.1756C32.4642 78.0624 32.4875 77.9506 32.509 77.8374C32.5962 77.3861 32.6828 76.9334 32.7706 76.4767L32.8369 76.1352L32.918 75.795C32.972 75.5687 33.026 75.3403 33.0807 75.114C33.2796 74.1966 33.5597 73.2953 33.817 72.3799C33.9545 71.9232 34.116 71.4759 34.2646 71.0212C34.3408 70.7942 34.4169 70.5658 34.4924 70.3395C34.579 70.1158 34.665 69.8902 34.7516 69.6665C36.1019 66.0625 37.9761 62.5717 40.2936 59.4111C40.5895 59.0213 40.8861 58.6316 41.1827 58.2405C41.4849 57.8562 41.8091 57.4892 42.121 57.1129L42.5945 56.551L43.0931 56.016L43.5911 55.4776C43.7588 55.3008 43.9184 55.116 44.0977 54.9506C44.4465 54.6118 44.7947 54.2723 45.1441 53.9328C45.2319 53.8491 45.3167 53.76 45.4069 53.6803L45.6808 53.4406L46.2273 52.9605L46.7732 52.4797C46.9538 52.3183 47.1503 52.1776 47.3376 52.025L48.4724 51.1283L49.6655 50.2812L49.975 50.0616C50.0776 49.9873 50.1813 49.9129 50.2777 49.8554L50.8673 49.4857L51.4543 49.1154L51.7466 48.9313C51.8449 48.8697 51.9517 48.8147 52.0543 48.7551C52.4663 48.5241 52.8783 48.2931 53.2898 48.0621C53.493 47.9409 53.7073 47.8451 53.9173 47.7386L54.548 47.4286L55.1762 47.1172L55.8173 46.8407C56.2465 46.6619 56.6678 46.467 57.0995 46.3003C57.5312 46.1422 57.9641 45.9835 58.3951 45.8255C61.8616 44.6242 65.4115 43.9967 68.8417 43.9197C69.0567 43.9123 69.271 43.905 69.484 43.8976C69.6971 43.9023 69.9108 43.907 70.1227 43.911C70.547 43.9231 70.9707 43.9184 71.3907 43.9418C72.2302 44.0068 73.061 44.0422 73.8765 44.1641C74.0816 44.1882 74.2842 44.2143 74.4881 44.2398L74.7915 44.2773L75.0924 44.3302C75.494 44.4005 75.8919 44.4708 76.2873 44.5418C76.3862 44.5592 76.4863 44.5739 76.5833 44.5947L76.8762 44.6623C77.0709 44.7072 77.2649 44.7527 77.459 44.7976C77.6518 44.8425 77.8446 44.886 78.0368 44.9309C78.1326 44.953 78.2284 44.9737 78.3248 44.9978L78.6067 45.0795C78.9837 45.1873 79.3583 45.2945 79.7298 45.4003L80.008 45.4793L80.2813 45.5737C80.4624 45.636 80.6442 45.6983 80.8235 45.7599C81.0046 45.8221 81.1833 45.8831 81.3632 45.9447C81.5413 46.005 81.72 46.0619 81.8932 46.1375C82.2426 46.2768 82.5877 46.4148 82.931 46.5527C83.1017 46.623 83.2736 46.6853 83.4413 46.7623C83.6077 46.84 83.7729 46.915 83.938 46.9927C84.2684 47.1447 84.5945 47.2947 84.9187 47.444C85.238 47.6027 85.55 47.7741 85.8601 47.9355C86.0161 48.0165 86.1708 48.0962 86.3237 48.1779C86.4785 48.2569 86.6301 48.3366 86.7769 48.4284C89.1699 49.7897 91.2074 51.3145 92.8967 52.8058C93.1055 52.9939 93.3112 53.1821 93.5139 53.3649C93.7134 53.5511 93.9198 53.7205 94.1022 53.914C94.4737 54.2877 94.8341 54.6493 95.1798 54.9955C95.517 55.3517 95.8246 55.7106 96.1286 56.0421C96.2778 56.2089 96.4283 56.3689 96.5683 56.5316C96.704 56.699 96.836 56.8611 96.9656 57.0205C97.2222 57.3372 97.4673 57.6358 97.6963 57.9184C97.9192 58.207 98.1157 58.4876 98.3067 58.7421C98.4946 58.9992 98.669 59.2363 98.8287 59.4526C98.9877 59.6709 99.1167 59.8831 99.2407 60.0646C99.2874 60.1356 99.3297 60.1999 99.3727 60.2635C99.1326 61.0282 99.0018 61.8465 99.0018 62.6976C99.0018 66.8574 102.092 70.2277 105.904 70.2277C109.715 70.2277 112.804 66.8574 112.804 62.6976C112.804 58.5686 109.758 55.2178 105.983 55.1709Z" fill="#FFDE59"/>
</g>
<path d="M62.0977 99.1552H69.1877V96.4867H64.7971V85.812H62.0977V99.1552Z" fill="#FFDE59"/>
<path d="M74.8193 99.1552V85.812H72.1199V99.1552H74.8193Z" fill="#FFDE59"/>
<path d="M87.8106 99.1552V85.812H85.1118V94.1316L80.9011 85.812H78.2017V99.1552H80.9011V90.8356L85.1118 99.1552H87.8106Z" fill="#FFDE59"/>
<path d="M98.3362 85.812V93.5235C98.3362 95.3684 97.8326 96.4083 95.9794 96.4083C94.1439 96.4083 93.6219 95.3684 93.6219 93.5235V85.812H90.9231V93.9554C90.9231 97.5072 92.7942 99.3514 95.9794 99.3514C99.1639 99.3514 101.036 97.5072 101.036 93.9554V85.812H98.3362Z" fill="#FFDE59"/>
<path d="M119.407 99.1552L117.032 85.812H113.829L111.291 95.1715L108.736 85.812H105.534L103.159 99.1552H106.128L107.567 89.9524L109.96 99.1552H112.606L114.999 89.9524L116.438 99.1552H119.407Z" fill="#FFDE59"/>
<path d="M44.9432 112.756H43.7003V107.492H42.1086V106.365H46.5349V107.492H44.9432V112.756Z" fill="#4798C8"/>
<path d="M52.3244 112.756H48.947V106.365H52.3244V107.474H50.1899V108.877H52.1746V109.989H50.1899V111.636H52.3244V112.756Z" fill="#4798C8"/>
<path d="M57.5469 107.398C57.0784 107.398 56.7155 107.59 56.4588 107.974C56.2033 108.358 56.0756 108.892 56.0756 109.575C56.0756 111.002 56.5657 111.715 57.5469 111.715C57.9578 111.715 58.4564 111.603 59.0428 111.378V112.514C58.5614 112.733 58.0241 112.843 57.4315 112.843C56.5779 112.843 55.9258 112.561 55.4738 111.997C55.0219 111.433 54.7959 110.623 54.7959 109.567C54.7959 108.903 54.9064 108.321 55.1275 107.821C55.3498 107.321 55.6691 106.938 56.0854 106.672C56.5012 106.404 56.9881 106.27 57.5469 106.27C58.1168 106.27 58.6891 106.42 59.2639 106.72L58.861 107.824C58.6431 107.71 58.4226 107.611 58.2003 107.526C57.9792 107.441 57.7612 107.398 57.5469 107.398Z" fill="#4798C8"/>
<path d="M66.6038 112.756H65.3634V109.997H63.0422V112.756H61.7993V106.365H63.0422V108.869H65.3634V106.365H66.6038V112.756Z" fill="#4798C8"/>
<path d="M74.7925 112.756H73.2131L70.6635 107.921H70.6266C70.6788 108.775 70.7052 109.383 70.7052 109.748V112.756H69.5925V106.365H71.1621L73.7068 111.151H73.7363C73.6951 110.321 73.6749 109.734 73.6749 109.389V106.365H74.7925V112.756Z" fill="#4798C8"/>
<path d="M83.0995 109.55C83.0995 110.608 82.8588 111.421 82.3773 111.991C81.8971 112.558 81.2081 112.842 80.3091 112.842C79.4114 112.842 78.7224 112.558 78.2409 111.991C77.7595 111.421 77.5188 110.604 77.5188 109.54C77.5188 108.476 77.7601 107.663 78.2434 107.102C78.7261 106.542 79.4181 106.261 80.319 106.261C81.2192 106.261 81.9082 106.544 82.3847 107.11C82.8612 107.675 83.0995 108.488 83.0995 109.55ZM78.8231 109.55C78.8231 110.263 78.9465 110.801 79.194 111.163C79.4427 111.524 79.8142 111.704 80.3091 111.704C81.3015 111.704 81.7976 110.986 81.7976 109.55C81.7976 108.109 81.3045 107.389 80.319 107.389C79.824 107.389 79.4507 107.571 79.1989 107.935C78.9484 108.298 78.8231 108.837 78.8231 109.55Z" fill="#4798C8"/>
<path d="M85.825 112.756V106.365H87.0678V111.636H89.4455V112.756H85.825Z" fill="#4798C8"/>
<path d="M97.2948 109.55C97.2948 110.608 97.0541 111.421 96.5726 111.991C96.0924 112.558 95.4034 112.842 94.5044 112.842C93.6067 112.842 92.9177 112.558 92.4363 111.991C91.9548 111.421 91.7141 110.604 91.7141 109.54C91.7141 108.476 91.9554 107.663 92.4387 107.102C92.9214 106.542 93.6134 106.261 94.5143 106.261C95.4145 106.261 96.1035 106.544 96.58 107.11C97.0565 107.675 97.2948 108.488 97.2948 109.55ZM93.0184 109.55C93.0184 110.263 93.1418 110.801 93.3893 111.163C93.638 111.524 94.0095 111.704 94.5044 111.704C95.4968 111.704 95.993 110.986 95.993 109.55C95.993 108.109 95.4999 107.389 94.5143 107.389C94.0193 107.389 93.646 107.571 93.3942 107.935C93.1437 108.298 93.0184 108.837 93.0184 109.55Z" fill="#4798C8"/>
<path d="M102.246 109.166H104.572V112.479C104.195 112.613 103.84 112.707 103.506 112.76C103.173 112.815 102.834 112.843 102.487 112.843C101.602 112.843 100.927 112.561 100.46 111.994C99.9936 111.426 99.7603 110.612 99.7603 109.551C99.7603 108.519 100.03 107.715 100.571 107.138C101.112 106.559 101.863 106.27 102.823 106.27C103.426 106.27 104.006 106.401 104.565 106.664L104.152 107.749C103.723 107.515 103.278 107.398 102.816 107.398C102.279 107.398 101.848 107.595 101.524 107.99C101.201 108.383 101.04 108.911 101.04 109.575C101.04 110.27 101.17 110.801 101.431 111.166C101.691 111.533 102.07 111.715 102.568 111.715C102.826 111.715 103.089 111.686 103.356 111.627V110.293H102.246V109.166Z" fill="#4798C8"/>
<path d="M107.477 112.756V106.365H108.72V112.756H107.477Z" fill="#4798C8"/>
<path d="M115.084 112.756H111.706V106.365H115.084V107.474H112.949V108.877H114.934V109.989H112.949V111.636H115.084V112.756Z" fill="#4798C8"/>
<path d="M121.277 110.979C121.277 111.556 121.086 112.011 120.704 112.345C120.324 112.677 119.794 112.843 119.115 112.843C118.49 112.843 117.936 112.715 117.455 112.457V111.199C117.851 111.391 118.186 111.527 118.459 111.606C118.735 111.685 118.985 111.724 119.211 111.724C119.484 111.724 119.694 111.667 119.84 111.552C119.985 111.438 120.058 111.27 120.058 111.046C120.058 110.921 120.025 110.809 119.96 110.711C119.896 110.613 119.802 110.52 119.678 110.43C119.555 110.339 119.302 110.194 118.919 109.996C118.561 109.812 118.293 109.636 118.113 109.468C117.934 109.299 117.791 109.101 117.683 108.876C117.576 108.651 117.524 108.389 117.524 108.089C117.524 107.525 117.699 107.081 118.049 106.758C118.401 106.433 118.887 106.27 119.508 106.27C119.813 106.27 120.103 106.31 120.38 106.388C120.657 106.467 120.946 106.577 121.25 106.72L120.847 107.775C120.534 107.635 120.275 107.536 120.071 107.481C119.868 107.426 119.667 107.398 119.469 107.398C119.233 107.398 119.052 107.458 118.926 107.577C118.801 107.697 118.739 107.853 118.739 108.046C118.739 108.166 118.765 108.27 118.816 108.359C118.866 108.447 118.946 108.533 119.056 108.616C119.167 108.701 119.43 108.849 119.845 109.064C120.393 109.35 120.769 109.636 120.972 109.924C121.175 110.211 121.277 110.563 121.277 110.979Z" fill="#4798C8"/>
<path d="M127.493 112.756V106.365H128.736V111.636H131.114V112.756H127.493Z" fill="#4798C8"/>
<path d="M133.643 112.756V106.365H134.886V111.636H137.263V112.756H133.643Z" fill="#4798C8"/>
<path d="M142.283 107.398C141.814 107.398 141.452 107.59 141.195 107.974C140.939 108.358 140.812 108.892 140.812 109.575C140.812 111.002 141.302 111.715 142.283 111.715C142.694 111.715 143.192 111.603 143.779 111.378V112.514C143.297 112.733 142.76 112.843 142.168 112.843C141.314 112.843 140.662 112.561 140.21 111.997C139.758 111.433 139.532 110.623 139.532 109.567C139.532 108.903 139.643 108.321 139.864 107.821C140.086 107.321 140.405 106.938 140.822 106.672C141.237 106.404 141.724 106.27 142.283 106.27C142.853 106.27 143.425 106.42 144 106.72L143.597 107.824C143.379 107.71 143.159 107.611 142.936 107.526C142.715 107.441 142.497 107.398 142.283 107.398Z" fill="#4798C8"/>
</svg>
